<mxfile host="app.diagrams.net" modified="2023-12-19T11:57:03.755Z" agent="Mozilla/5.0 (Windows NT 10.0; Win64; x64) AppleWebKit/537.36 (KHTML, like Gecko) Chrome/120.0.0.0 Safari/537.36 Edg/120.0.0.0" etag="wGDJbA3Oz540UIAWsxOn" version="22.1.11" type="github">
  <diagram name="Page-1" id="iW9MUn0aC4_yPEXNJq7R">
    <mxGraphModel dx="1282" dy="1677" grid="1" gridSize="10" guides="1" tooltips="1" connect="1" arrows="1" fold="1" page="1" pageScale="1" pageWidth="850" pageHeight="1100" math="0" shadow="0">
      <root>
        <mxCell id="0" />
        <mxCell id="1" parent="0" />
        <mxCell id="l6Ly_GkOqay7aKLUgFl2-2" value="Cloud" style="whiteSpace=wrap;html=1;aspect=fixed;" vertex="1" parent="1">
          <mxGeometry x="353.7" y="570" width="80" height="80" as="geometry" />
        </mxCell>
        <mxCell id="l6Ly_GkOqay7aKLUgFl2-3" value="Offline Stored data" style="whiteSpace=wrap;html=1;aspect=fixed;" vertex="1" parent="1">
          <mxGeometry x="353.7" y="430" width="80" height="80" as="geometry" />
        </mxCell>
        <mxCell id="l6Ly_GkOqay7aKLUgFl2-4" value="" style="whiteSpace=wrap;html=1;aspect=fixed;" vertex="1" parent="1">
          <mxGeometry x="348.7" y="295" width="90" height="90" as="geometry" />
        </mxCell>
        <mxCell id="l6Ly_GkOqay7aKLUgFl2-12" value="" style="edgeStyle=orthogonalEdgeStyle;rounded=0;orthogonalLoop=1;jettySize=auto;html=1;exitX=0.5;exitY=1;exitDx=0;exitDy=0;" edge="1" parent="1" source="l6Ly_GkOqay7aKLUgFl2-4" target="l6Ly_GkOqay7aKLUgFl2-3">
          <mxGeometry relative="1" as="geometry">
            <mxPoint x="400" y="420" as="sourcePoint" />
          </mxGeometry>
        </mxCell>
        <mxCell id="l6Ly_GkOqay7aKLUgFl2-5" value="Shovel Operator" style="shape=umlActor;verticalLabelPosition=bottom;verticalAlign=top;html=1;outlineConnect=0;" vertex="1" parent="1">
          <mxGeometry x="386.2" y="310" width="15" height="40" as="geometry" />
        </mxCell>
        <mxCell id="l6Ly_GkOqay7aKLUgFl2-7" value="Shovel Interface&lt;br&gt;&lt;br&gt;Alert system" style="whiteSpace=wrap;html=1;aspect=fixed;" vertex="1" parent="1">
          <mxGeometry x="353.7" y="140" width="80" height="80" as="geometry" />
        </mxCell>
        <mxCell id="l6Ly_GkOqay7aKLUgFl2-8" value="&lt;br&gt;&lt;br&gt;&lt;br&gt;&lt;br&gt;Arduino" style="whiteSpace=wrap;html=1;aspect=fixed;" vertex="1" parent="1">
          <mxGeometry x="353.7" y="16" width="80" height="80" as="geometry" />
        </mxCell>
        <mxCell id="l6Ly_GkOqay7aKLUgFl2-9" value="" style="endArrow=classic;html=1;rounded=0;entryX=0.5;entryY=0;entryDx=0;entryDy=0;exitX=0.5;exitY=1;exitDx=0;exitDy=0;" edge="1" parent="1" source="l6Ly_GkOqay7aKLUgFl2-7" target="l6Ly_GkOqay7aKLUgFl2-4">
          <mxGeometry width="50" height="50" relative="1" as="geometry">
            <mxPoint x="250" y="300" as="sourcePoint" />
            <mxPoint x="300" y="250" as="targetPoint" />
          </mxGeometry>
        </mxCell>
        <mxCell id="l6Ly_GkOqay7aKLUgFl2-17" value="Dumper&amp;nbsp; condition" style="edgeLabel;html=1;align=center;verticalAlign=middle;resizable=0;points=[];" vertex="1" connectable="0" parent="l6Ly_GkOqay7aKLUgFl2-9">
          <mxGeometry x="0.05" relative="1" as="geometry">
            <mxPoint as="offset" />
          </mxGeometry>
        </mxCell>
        <mxCell id="l6Ly_GkOqay7aKLUgFl2-10" value="" style="endArrow=classic;html=1;rounded=0;entryX=0.5;entryY=0;entryDx=0;entryDy=0;exitX=0.5;exitY=1;exitDx=0;exitDy=0;" edge="1" parent="1" source="l6Ly_GkOqay7aKLUgFl2-8" target="l6Ly_GkOqay7aKLUgFl2-7">
          <mxGeometry width="50" height="50" relative="1" as="geometry">
            <mxPoint x="270" y="160" as="sourcePoint" />
            <mxPoint x="320" y="110" as="targetPoint" />
          </mxGeometry>
        </mxCell>
        <mxCell id="l6Ly_GkOqay7aKLUgFl2-15" value="Real-time&lt;br&gt;Data" style="edgeLabel;html=1;align=center;verticalAlign=middle;resizable=0;points=[];" vertex="1" connectable="0" parent="l6Ly_GkOqay7aKLUgFl2-10">
          <mxGeometry x="-0.02" y="3" relative="1" as="geometry">
            <mxPoint as="offset" />
          </mxGeometry>
        </mxCell>
        <mxCell id="l6Ly_GkOqay7aKLUgFl2-13" value="" style="endArrow=classic;html=1;rounded=0;entryX=0.5;entryY=0;entryDx=0;entryDy=0;exitX=0.5;exitY=1;exitDx=0;exitDy=0;" edge="1" parent="1" source="l6Ly_GkOqay7aKLUgFl2-3" target="l6Ly_GkOqay7aKLUgFl2-2">
          <mxGeometry width="50" height="50" relative="1" as="geometry">
            <mxPoint x="210" y="620" as="sourcePoint" />
            <mxPoint x="260" y="570" as="targetPoint" />
          </mxGeometry>
        </mxCell>
        <mxCell id="l6Ly_GkOqay7aKLUgFl2-16" value="Data-upload" style="edgeLabel;html=1;align=center;verticalAlign=middle;resizable=0;points=[];" vertex="1" connectable="0" parent="l6Ly_GkOqay7aKLUgFl2-13">
          <mxGeometry x="-0.03" y="2" relative="1" as="geometry">
            <mxPoint as="offset" />
          </mxGeometry>
        </mxCell>
        <mxCell id="l6Ly_GkOqay7aKLUgFl2-14" value="" style="dashed=0;outlineConnect=0;html=1;align=center;labelPosition=center;verticalLabelPosition=bottom;verticalAlign=top;shape=mxgraph.weblogos.arduino;fillColor=#36868D;strokeColor=none" vertex="1" parent="1">
          <mxGeometry x="366.3" y="24" width="67.4" height="32" as="geometry" />
        </mxCell>
        <mxCell id="l6Ly_GkOqay7aKLUgFl2-18" value="N-BIOT" style="whiteSpace=wrap;html=1;aspect=fixed;" vertex="1" parent="1">
          <mxGeometry x="140" y="300" width="80" height="80" as="geometry" />
        </mxCell>
        <mxCell id="l6Ly_GkOqay7aKLUgFl2-19" value="" style="endArrow=classic;html=1;rounded=0;entryX=1;entryY=0.5;entryDx=0;entryDy=0;exitX=0;exitY=0.5;exitDx=0;exitDy=0;" edge="1" parent="1" source="l6Ly_GkOqay7aKLUgFl2-4" target="l6Ly_GkOqay7aKLUgFl2-18">
          <mxGeometry width="50" height="50" relative="1" as="geometry">
            <mxPoint x="400" y="210" as="sourcePoint" />
            <mxPoint x="450" y="160" as="targetPoint" />
            <Array as="points" />
          </mxGeometry>
        </mxCell>
        <mxCell id="l6Ly_GkOqay7aKLUgFl2-20" value="dumper alert system" style="whiteSpace=wrap;html=1;aspect=fixed;" vertex="1" parent="1">
          <mxGeometry x="140" y="160" width="80" height="80" as="geometry" />
        </mxCell>
        <mxCell id="l6Ly_GkOqay7aKLUgFl2-21" value="" style="endArrow=classic;html=1;rounded=0;entryX=0.5;entryY=1;entryDx=0;entryDy=0;exitX=0.5;exitY=0;exitDx=0;exitDy=0;" edge="1" parent="1" source="l6Ly_GkOqay7aKLUgFl2-18" target="l6Ly_GkOqay7aKLUgFl2-20">
          <mxGeometry width="50" height="50" relative="1" as="geometry">
            <mxPoint x="180" y="320" as="sourcePoint" />
            <mxPoint x="200" y="270" as="targetPoint" />
            <Array as="points" />
          </mxGeometry>
        </mxCell>
        <mxCell id="l6Ly_GkOqay7aKLUgFl2-22" value="4&lt;br&gt;Hydraulic load&lt;br&gt;sensor" style="whiteSpace=wrap;html=1;aspect=fixed;" vertex="1" parent="1">
          <mxGeometry x="140" y="-64" width="80" height="80" as="geometry" />
        </mxCell>
        <mxCell id="l6Ly_GkOqay7aKLUgFl2-23" value="" style="endArrow=classic;html=1;rounded=0;entryX=0.5;entryY=0;entryDx=0;entryDy=0;exitX=0.5;exitY=1;exitDx=0;exitDy=0;" edge="1" parent="1" source="l6Ly_GkOqay7aKLUgFl2-22" target="l6Ly_GkOqay7aKLUgFl2-25">
          <mxGeometry width="50" height="50" relative="1" as="geometry">
            <mxPoint x="355" y="-20" as="sourcePoint" />
            <mxPoint x="405" y="-70" as="targetPoint" />
          </mxGeometry>
        </mxCell>
        <mxCell id="l6Ly_GkOqay7aKLUgFl2-25" value="&lt;br&gt;&lt;br&gt;&lt;br&gt;&lt;br&gt;Arduino" style="whiteSpace=wrap;html=1;aspect=fixed;" vertex="1" parent="1">
          <mxGeometry x="140" y="40" width="80" height="80" as="geometry" />
        </mxCell>
        <mxCell id="l6Ly_GkOqay7aKLUgFl2-26" value="" style="dashed=0;outlineConnect=0;html=1;align=center;labelPosition=center;verticalLabelPosition=bottom;verticalAlign=top;shape=mxgraph.weblogos.arduino;fillColor=#36868D;strokeColor=none" vertex="1" parent="1">
          <mxGeometry x="146.3" y="64" width="67.4" height="32" as="geometry" />
        </mxCell>
        <mxCell id="l6Ly_GkOqay7aKLUgFl2-27" value="" style="endArrow=classic;html=1;rounded=0;entryX=0.5;entryY=0;entryDx=0;entryDy=0;exitX=0.5;exitY=1;exitDx=0;exitDy=0;" edge="1" parent="1" source="l6Ly_GkOqay7aKLUgFl2-25" target="l6Ly_GkOqay7aKLUgFl2-20">
          <mxGeometry width="50" height="50" relative="1" as="geometry">
            <mxPoint x="40" y="150" as="sourcePoint" />
            <mxPoint x="90" y="100" as="targetPoint" />
          </mxGeometry>
        </mxCell>
        <mxCell id="l6Ly_GkOqay7aKLUgFl2-30" value="Stick sensor" style="whiteSpace=wrap;html=1;aspect=fixed;" vertex="1" parent="1">
          <mxGeometry x="273.7" y="-120" width="80" height="80" as="geometry" />
        </mxCell>
        <mxCell id="l6Ly_GkOqay7aKLUgFl2-31" value="Boom sensor" style="whiteSpace=wrap;html=1;aspect=fixed;" vertex="1" parent="1">
          <mxGeometry x="433.7" y="-120" width="80" height="80" as="geometry" />
        </mxCell>
        <mxCell id="l6Ly_GkOqay7aKLUgFl2-32" value="" style="endArrow=classic;html=1;rounded=0;entryX=0.5;entryY=0;entryDx=0;entryDy=0;exitX=0.5;exitY=1;exitDx=0;exitDy=0;" edge="1" parent="1" source="l6Ly_GkOqay7aKLUgFl2-30" target="l6Ly_GkOqay7aKLUgFl2-8">
          <mxGeometry width="50" height="50" relative="1" as="geometry">
            <mxPoint x="400" y="100" as="sourcePoint" />
            <mxPoint x="450" y="50" as="targetPoint" />
          </mxGeometry>
        </mxCell>
        <mxCell id="l6Ly_GkOqay7aKLUgFl2-33" value="" style="endArrow=classic;html=1;rounded=0;entryX=0.5;entryY=0;entryDx=0;entryDy=0;exitX=0.5;exitY=1;exitDx=0;exitDy=0;" edge="1" parent="1" source="l6Ly_GkOqay7aKLUgFl2-31" target="l6Ly_GkOqay7aKLUgFl2-8">
          <mxGeometry width="50" height="50" relative="1" as="geometry">
            <mxPoint x="400" y="100" as="sourcePoint" />
            <mxPoint x="450" y="50" as="targetPoint" />
          </mxGeometry>
        </mxCell>
        <mxCell id="l6Ly_GkOqay7aKLUgFl2-36" value="Hydraulic load&lt;br&gt;sensor&lt;br&gt;(Bucket)" style="whiteSpace=wrap;html=1;aspect=fixed;" vertex="1" parent="1">
          <mxGeometry x="353.7" y="-200" width="80" height="80" as="geometry" />
        </mxCell>
        <mxCell id="l6Ly_GkOqay7aKLUgFl2-37" value="" style="endArrow=classic;html=1;rounded=0;entryX=0.5;entryY=0;entryDx=0;entryDy=0;exitX=0.5;exitY=1;exitDx=0;exitDy=0;" edge="1" parent="1" source="l6Ly_GkOqay7aKLUgFl2-36" target="l6Ly_GkOqay7aKLUgFl2-8">
          <mxGeometry width="50" height="50" relative="1" as="geometry">
            <mxPoint x="357.5" y="-120" as="sourcePoint" />
            <mxPoint x="407.5" y="-170" as="targetPoint" />
          </mxGeometry>
        </mxCell>
      </root>
    </mxGraphModel>
  </diagram>
</mxfile>
